<svg xmlns="http://www.w3.org/2000/svg" viewBox="0 0 640 480">
    <clipPath id="s"><path d="M0,0 v480 h640 v-480 z"/></clipPath>
    <clipPath id="t"><path d="M320,240 L640,480 H560 L280,240 H320 z M320,240 L0,480 H80 L360,240 H320 z M320,240 L0,0 H80 L360,240 H320 z M320,240 L640,0 H560 L280,240 H320 z"/></clipPath>
    <rect width="640" height="480" fill="#012169"/>
    <path d="M0,0 L640,480 M640,0 L0,480" stroke="#FFFFFF" stroke-width="80"/>
    <path d="M0,0 L640,480 M640,0 L0,480" clip-path="url(#t)" stroke="#C8102E" stroke-width="50"/>
    <path d="M320,0 v480 M0,240 h640" stroke="#FFFFFF" stroke-width="120"/>
    <path d="M320,0 v480 M0,240 h640" stroke="#C8102E" stroke-width="72"/>
  </svg>